# xmcd
#
# Track frame offsets: 
#        150
#        19850
#        39175
#        65650
#        84775
#        105075
#        130875
#        151500
#        174550
#        194900
#        211425
#
# Disc length: 3142 seconds
#
# Revision: 0
# Processed by: cddbd v1.4PL0 Copyright (c) Steve Scherf et al.
# Submitted via: ExactAudioCopy v0.90b4
#
DISCID=850c440b
DTITLE=Ginny Wilder - Lessons in Life and Love
DYEAR=2002
DGENRE=Country
TTITLE0=Lay Your Baggage Down
TTITLE1=Diggin Up Bones
TTITLE2=Funny Feelin'
TTITLE3=Wash It All Away
TTITLE4=Pickin' Apples
TTITLE5=40 Days and 40 Nights
TTITLE6=Hit Or Miss
TTITLE7=The Drivine Song
TTITLE8=Little Boy, Little Girl
TTITLE9=Emotion of the Moment
TTITLE10=Asking You To Stay
EXTD=
EXTT0=
EXTT1=
EXTT2=
EXTT3=
EXTT4=
EXTT5=
EXTT6=
EXTT7=
EXTT8=
EXTT9=
EXTT10=
PLAYORDER=
